#tb 0: 1/25
#media_type 0: video
#codec_id 0: rawvideo
#dimensions 0: 352x288
#sar 0: 0/1
0,          0,          0,        1,   102400, 0x60154dde
0,          1,          1,        1,   102400, 0xd43dbb43
0,          2,          2,        1,   102400, 0x298ae007
0,          3,          3,        1,   102400, 0x50fdaf5d
0,          4,          4,        1,   102400, 0x96c55d58
